# xmcd CD database file
#
# Track frame offsets:
#	150
#	11323
#	21203
#	34973
#	45606
#	55939
#	65216
#	76031
#	86624
#	98205
#	109451
#	119827
#	131289
#	142772
#	153118
#	165461
#	177267
#	189788
#	200808
#	211827
#	220679
#	230962
#	245327
#
# Disc length: 3407 seconds
#
# Revision: 1
# Processed by: cddbd v1.5.1PL0 Copyright (c) Steve Scherf et al.
# Submitted via: CDex 1.51
#
DISCID=3a0d4d17
DTITLE=Patsy Cline - Crazy Dreams - The Four Star Years -Disc 1
DYEAR=1996
DGENRE=Country
TTITLE0=Hidin' Out
TTITLE1=Turn The Cards Slowly
TTITLE2=A Church, A Courtroom, And Then Goodbye
TTITLE3=Honky Tonk Merry - Go - Round
TTITLE4=I Love You Honey
TTITLE5=Come On In
TTITLE6=I Cried All The Way To The Altar
TTITLE7=Stop, Look And Listen
TTITLE8=I've Loved And Lost Again
TTITLE9=Dear God
TTITLE10=He Will Do For You
TTITLE11=Walkin' After Midnight
TTITLE12=The Heart You Break May Be Your Own
TTITLE13=Pick Me Up On Your Way Down
TTITLE14=A Poor Man's Roses
TTITLE15=Today, Tomorrow And Forever
TTITLE16=Fingerprints
TTITLE17=A Stranger In My Arms
TTITLE18=Don't Ever Leave Me
TTITLE19=Try Again
TTITLE20=Too Many Secrets
TTITLE21=Then You'll Know
TTITLE22=Three Cigarettes In An Ashtray
EXTD=YEAR: 1996
EXTT0=
EXTT1=
EXTT2=
EXTT3=
EXTT4=
EXTT5=
EXTT6=
EXTT7=
EXTT8=
EXTT9=
EXTT10=
EXTT11=
EXTT12=
EXTT13=
EXTT14=
EXTT15=
EXTT16=
EXTT17=
EXTT18=
EXTT19=
EXTT20=
EXTT21=
EXTT22=
PLAYORDER=
